<?xml version="1.0" encoding="UTF-8" standalone="no"?><!DOCTYPE svg PUBLIC "-//W3C//DTD SVG 1.1//EN" "http://www.w3.org/Graphics/SVG/1.1/DTD/svg11.dtd"><!-- Generated by graphviz version 2.40.1 (20161225.0304)
 --><!-- Title: program_graph Pages: 1 --><svg xmlns="http://www.w3.org/2000/svg" xmlns:xlink="http://www.w3.org/1999/xlink" width="1009pt" height="167pt" viewBox="0.00 0.00 1009.06 166.80">
<g id="graph0" class="graph" transform="scale(1 1) rotate(0) translate(4 162.8011)">
<title>program_graph</title>
<polygon fill="#ffffff" stroke="transparent" points="-4,4 -4,-162.8011 1005.0572,-162.8011 1005.0572,4 -4,4"/>
<!-- q▷ -->
<g id="node1" class="node">
<title>q▷</title>
<ellipse fill="none" stroke="#000000" cx="24.0724" cy="-65.6935" rx="24.1451" ry="24.1451"/>
<text text-anchor="middle" x="24.0724" y="-61.4935" font-family="Times,serif" font-size="14.00" fill="#000000">q▷</text>
</g>
<!-- q1 -->
<g id="node3" class="node">
<title>q1</title>
<ellipse fill="none" stroke="#000000" cx="127.5141" cy="-65.6935" rx="20.8887" ry="20.8887"/>
<text text-anchor="middle" x="127.5141" y="-61.4935" font-family="Times,serif" font-size="14.00" fill="#000000">q1</text>
</g>
<!-- q▷&#45;&gt;q1 -->
<g id="edge11" class="edge">
<title>q▷-&gt;q1</title>
<path fill="none" stroke="#000000" d="M48.3249,-65.6935C62.6864,-65.6935 81.0285,-65.6935 96.4428,-65.6935"/>
<polygon fill="#000000" stroke="#000000" points="96.5617,-69.1936 106.5617,-65.6935 96.5616,-62.1936 96.5617,-69.1936"/>
<text text-anchor="middle" x="77.4827" y="-69.8935" font-family="Times,serif" font-size="14.00" fill="#000000">i:=1</text>
</g>
<!-- q◀ -->
<g id="node2" class="node">
<title>q◀</title>
<ellipse fill="none" stroke="#000000" cx="251.0822" cy="-131.6935" rx="23.1999" ry="23.1999"/>
<ellipse fill="none" stroke="#000000" cx="251.0822" cy="-131.6935" rx="27.2158" ry="27.2158"/>
<text text-anchor="middle" x="251.0822" y="-127.4935" font-family="Times,serif" font-size="14.00" fill="#000000">q◀</text>
</g>
<!-- q1&#45;&gt;q◀ -->
<g id="edge1" class="edge">
<title>q1-&gt;q◀</title>
<path fill="none" stroke="#000000" d="M145.995,-75.7709C152.3896,-79.2453 159.607,-83.1526 166.2075,-86.6935 183.1252,-95.7688 201.989,-105.7809 217.6284,-114.0525"/>
<polygon fill="#000000" stroke="#000000" points="216.4265,-117.376 226.9032,-118.9539 219.6972,-111.1871 216.4265,-117.376"/>
<text text-anchor="middle" x="186.091" y="-111.8935" font-family="Times,serif" font-size="14.00" fill="#000000">!(i &lt; n)</text>
</g>
<!-- q2 -->
<g id="node4" class="node">
<title>q2</title>
<ellipse fill="none" stroke="#000000" cx="251.0822" cy="-65.6935" rx="20.8887" ry="20.8887"/>
<text text-anchor="middle" x="251.0822" y="-61.4935" font-family="Times,serif" font-size="14.00" fill="#000000">q2</text>
</g>
<!-- q1&#45;&gt;q2 -->
<g id="edge2" class="edge">
<title>q1-&gt;q2</title>
<path fill="none" stroke="#000000" d="M148.4757,-65.6935C168.0918,-65.6935 197.645,-65.6935 220.004,-65.6935"/>
<polygon fill="#000000" stroke="#000000" points="220.0178,-69.1936 230.0177,-65.6935 220.0177,-62.1936 220.0178,-69.1936"/>
<text text-anchor="middle" x="186.091" y="-69.8935" font-family="Times,serif" font-size="14.00" fill="#000000">i &lt; n</text>
</g>
<!-- q3 -->
<g id="node5" class="node">
<title>q3</title>
<ellipse fill="none" stroke="#000000" cx="369.3444" cy="-69.6935" rx="20.8887" ry="20.8887"/>
<text text-anchor="middle" x="369.3444" y="-65.4935" font-family="Times,serif" font-size="14.00" fill="#000000">q3</text>
</g>
<!-- q2&#45;&gt;q3 -->
<g id="edge3" class="edge">
<title>q2-&gt;q3</title>
<path fill="none" stroke="#000000" d="M271.9529,-66.3994C290.3322,-67.021 317.3538,-67.935 338.2745,-68.6426"/>
<polygon fill="#000000" stroke="#000000" points="338.1719,-72.141 348.2845,-68.9811 338.4086,-65.145 338.1719,-72.141"/>
<text text-anchor="middle" x="313.4204" y="-72.8935" font-family="Times,serif" font-size="14.00" fill="#000000">j:=i</text>
</g>
<!-- q4 -->
<g id="node6" class="node">
<title>q4</title>
<ellipse fill="none" stroke="#000000" cx="588.4715" cy="-20.6935" rx="20.8887" ry="20.8887"/>
<text text-anchor="middle" x="588.4715" y="-16.4935" font-family="Times,serif" font-size="14.00" fill="#000000">q4</text>
</g>
<!-- q3&#45;&gt;q4 -->
<g id="edge4" class="edge">
<title>q3-&gt;q4</title>
<path fill="none" stroke="#000000" d="M386.3601,-57.7336C392.8691,-53.689 400.5357,-49.5332 408.0378,-46.8935 434.9331,-37.4299 513.325,-28.3113 557.4192,-23.7385"/>
<polygon fill="#000000" stroke="#000000" points="557.9854,-27.199 567.5786,-22.7024 557.2751,-20.2351 557.9854,-27.199"/>
<text text-anchor="middle" x="478.9079" y="-51.8935" font-family="Times,serif" font-size="14.00" fill="#000000">!(j &gt; 0 &amp;&amp; A[j-1] &gt; A[j])</text>
</g>
<!-- q5 -->
<g id="node7" class="node">
<title>q5</title>
<ellipse fill="none" stroke="#000000" cx="588.4715" cy="-129.6935" rx="20.8887" ry="20.8887"/>
<text text-anchor="middle" x="588.4715" y="-125.4935" font-family="Times,serif" font-size="14.00" fill="#000000">q5</text>
</g>
<!-- q3&#45;&gt;q5 -->
<g id="edge5" class="edge">
<title>q3-&gt;q5</title>
<path fill="none" stroke="#000000" d="M386.8882,-81.1943C393.3271,-84.9987 400.8119,-88.9548 408.0378,-91.6935 458.7138,-110.9 521.2705,-121.3219 557.8344,-126.1784"/>
<polygon fill="#000000" stroke="#000000" points="557.5037,-129.6645 567.866,-127.4571 558.3888,-122.7207 557.5037,-129.6645"/>
<text text-anchor="middle" x="478.9079" y="-127.8935" font-family="Times,serif" font-size="14.00" fill="#000000">j &gt; 0 &amp;&amp; A[j-1] &gt; A[j]</text>
</g>
<!-- q4&#45;&gt;q1 -->
<g id="edge6" class="edge">
<title>q4-&gt;q1</title>
<path fill="none" stroke="#000000" d="M567.7107,-19.6202C511.7106,-17.1386 353.0697,-12.8428 223.9745,-35.6935 200.8457,-39.7874 175.516,-47.8087 156.6186,-54.5276"/>
<polygon fill="#000000" stroke="#000000" points="155.3013,-51.2824 147.1031,-57.9936 157.6971,-57.8597 155.3013,-51.2824"/>
<text text-anchor="middle" x="313.4204" y="-29.8935" font-family="Times,serif" font-size="14.00" fill="#000000">i:=i+1</text>
</g>
<!-- q6 -->
<g id="node8" class="node">
<title>q6</title>
<ellipse fill="none" stroke="#000000" cx="704.8526" cy="-132.6935" rx="20.8887" ry="20.8887"/>
<text text-anchor="middle" x="704.8526" y="-128.4935" font-family="Times,serif" font-size="14.00" fill="#000000">q6</text>
</g>
<!-- q5&#45;&gt;q6 -->
<g id="edge7" class="edge">
<title>q5-&gt;q6</title>
<path fill="none" stroke="#000000" d="M609.2781,-130.2298C627.2059,-130.6919 653.3435,-131.3657 673.7554,-131.8918"/>
<polygon fill="#000000" stroke="#000000" points="673.7468,-135.3927 683.8337,-132.1516 673.9273,-128.395 673.7468,-135.3927"/>
<text text-anchor="middle" x="646.662" y="-134.8935" font-family="Times,serif" font-size="14.00" fill="#000000">t:=A[j]</text>
</g>
<!-- q7 -->
<g id="node9" class="node">
<title>q7</title>
<ellipse fill="none" stroke="#000000" cx="852.3221" cy="-129.6935" rx="20.8887" ry="20.8887"/>
<text text-anchor="middle" x="852.3221" y="-125.4935" font-family="Times,serif" font-size="14.00" fill="#000000">q7</text>
</g>
<!-- q6&#45;&gt;q7 -->
<g id="edge8" class="edge">
<title>q6-&gt;q7</title>
<path fill="none" stroke="#000000" d="M725.6686,-132.27C750.5904,-131.763 792.5593,-130.9092 821.3053,-130.3244"/>
<polygon fill="#000000" stroke="#000000" points="821.6853,-133.8175 831.612,-130.1148 821.5428,-126.819 821.6853,-133.8175"/>
<text text-anchor="middle" x="778.5873" y="-135.8935" font-family="Times,serif" font-size="14.00" fill="#000000">A[j]:=A[j-1]</text>
</g>
<!-- q8 -->
<g id="node10" class="node">
<title>q8</title>
<ellipse fill="none" stroke="#000000" cx="980.3638" cy="-93.6935" rx="20.8887" ry="20.8887"/>
<text text-anchor="middle" x="980.3638" y="-89.4935" font-family="Times,serif" font-size="14.00" fill="#000000">q8</text>
</g>
<!-- q7&#45;&gt;q8 -->
<g id="edge9" class="edge">
<title>q7-&gt;q8</title>
<path fill="none" stroke="#000000" d="M872.3286,-124.0685C893.2534,-118.1853 926.3366,-108.8836 950.3841,-102.1225"/>
<polygon fill="#000000" stroke="#000000" points="951.3958,-105.4738 960.0752,-99.3978 949.5011,-98.7351 951.3958,-105.4738"/>
<text text-anchor="middle" x="916.3429" y="-121.8935" font-family="Times,serif" font-size="14.00" fill="#000000">A[j-1]:=t</text>
</g>
<!-- q8&#45;&gt;q3 -->
<g id="edge10" class="edge">
<title>q8-&gt;q3</title>
<path fill="none" stroke="#000000" d="M960.0596,-89.5731C934.8909,-84.8324 890.6301,-77.6935 852.3221,-77.6935 588.4715,-77.6935 588.4715,-77.6935 588.4715,-77.6935 521.4085,-77.6935 442.8775,-73.9051 400.4189,-71.5423"/>
<polygon fill="#000000" stroke="#000000" points="400.3648,-68.0337 390.1824,-70.9611 399.9679,-75.0224 400.3648,-68.0337"/>
<text text-anchor="middle" x="704.8526" y="-81.8935" font-family="Times,serif" font-size="14.00" fill="#000000">j:=j-1</text>
</g>
</g>
</svg>